<svg xmlns="http://www.w3.org/2000/svg" viewBox="349 60 325.5 338"><path fill="#fff" d="M674.8 384.9a.6.6 0 01-.6.6H349.8a.6.6 0 01-.5-.6V60.6a.6.6 0 01.5-.6h324.4a.6.6 0 01.6.6v324.3zm-6.5-318.1a.3.3 0 00-.3-.3H356a.3.3 0 00-.2.3v311.9a.3.3 0 00.2.3h312a.3.3 0 00.3-.3V66.8z"/><path fill="#fff" d="M661.8 371.9a.6.6 0 01-.6.6H362.8a.6.6 0 01-.5-.6V73.6a.6.6 0 01.5-.6h298.4a.6.6 0 01.6.6v298.3zm-6.5-291.8a.6.6 0 00-.6-.6H369.3a.6.6 0 00-.5.6v285.3a.6.6 0 00.5.6h285.4a.6.6 0 00.6-.6V80.1z"/><path fill="#fff" d="M466.9 245.4l34.7.1a.8.8 0 01.9.8v20.9a.8.8 0 01-.8.8h-66.2a.7.7 0 01-.7-.7v-20a1.5 1.5-26.7 01.3-1l35-45.6q.5-.7-.3-.7h-34.5a.6.6 0 01-.5-.6v-21.3a.6.6 0 01.5-.6l66.6.1a.5.5 90 01.5.5l.1 19.6a2.6 2.5-27.2 01-.5 1.6l-35.4 45.5q-.4.6.3.6zM543.8 239.6l-.2 27.7a.5.5-.6 01-.6.5l-26.9.2a.9.9 90 01-.8-.9v-88.7a.9.9 0 01.8-.9h35.7q6.5 0 12.9 1.2 20.5 3.7 24.1 23.6 2.8 16.2-7.7 27.1-4.6 4.8-10.8 7.1-6 2.2-13 2.5-9 .3-13 .1a.5.5 2.3 00-.5.5zm15.2-26.1q2.8-4.5.5-9.3-1.5-3.1-4.2-3.4-5.3-.8-11.1-.5a.5.5-1.2 00-.4.5v15.4a.5.5 1.1 00.5.5q7.7.4 10.5-.2 2.8-.6 4.2-3z"/></svg>